<?xml version="1.0" encoding="utf-8"?>
<!-- Generator: Adobe Illustrator 18.1.1, SVG Export Plug-In . SVG Version: 6.00 Build 0)  -->
<!DOCTYPE svg PUBLIC "-//W3C//DTD SVG 1.1//EN" "http://www.w3.org/Graphics/SVG/1.1/DTD/svg11.dtd">
<svg version="1.1" id="Layer_2" xmlns="http://www.w3.org/2000/svg" xmlns:xlink="http://www.w3.org/1999/xlink" x="0px" y="0px"
	 width="112px" height="95px" viewBox="-903 493 112 95" enable-background="new -903 493 112 95" xml:space="preserve">
<g>
	<path id="Fill-4_2_" fill="none" stroke="#FFB74D" stroke-width="2" d="M-873.8,586.8l-27.2-46.5
		l27.2-46.5h54.4l27.2,46.5l-27.2,46.5H-873.8"/>
	<g>
		<path fill="#FFFFFF" d="M-871.2,533.7h-2.4v-9.3l-2.9,0.9v-1.9l5-1.8h0.3V533.7z"/>
		<path fill="#FFFFFF" d="M-855.7,528.7c0,1.7-0.3,2.9-1,3.8s-1.7,1.3-3,1.3c-1.3,0-2.3-0.4-3-1.3s-1.1-2.1-1.1-3.7v-2.2
			c0-1.7,0.3-3,1-3.8c0.7-0.9,1.7-1.3,3-1.3c1.3,0,2.3,0.4,3,1.3c0.7,0.9,1.1,2.1,1.1,3.7V528.7z M-858.1,526.3c0-1-0.1-1.7-0.4-2.2
			s-0.7-0.7-1.3-0.7c-0.6,0-1,0.2-1.2,0.7c-0.3,0.4-0.4,1.1-0.4,2v2.9c0,1,0.1,1.7,0.4,2.2c0.3,0.5,0.7,0.7,1.3,0.7
			c0.6,0,1-0.2,1.3-0.7c0.3-0.5,0.4-1.2,0.4-2.1V526.3z"/>
		<path fill="#FFFFFF" d="M-844.9,533.7h-2.4v-9.3l-2.9,0.9v-1.9l5-1.8h0.3V533.7z"/>
		<path fill="#FFFFFF" d="M-829.4,528.7c0,1.7-0.3,2.9-1,3.8s-1.7,1.3-3,1.3c-1.3,0-2.3-0.4-3-1.3s-1.1-2.1-1.1-3.7v-2.2
			c0-1.7,0.3-3,1.1-3.8c0.7-0.9,1.7-1.3,3-1.3c1.3,0,2.3,0.4,3,1.3c0.7,0.9,1.1,2.1,1.1,3.7V528.7z M-831.8,526.3
			c0-1-0.1-1.7-0.4-2.2c-0.3-0.5-0.7-0.7-1.3-0.7c-0.6,0-1,0.2-1.2,0.7c-0.3,0.4-0.4,1.1-0.4,2v2.9c0,1,0.1,1.7,0.4,2.2
			c0.3,0.5,0.7,0.7,1.3,0.7c0.6,0,1-0.2,1.3-0.7c0.3-0.5,0.4-1.2,0.4-2.1V526.3z"/>
		<path fill="#FFFFFF" d="M-816.3,528.7c0,1.7-0.3,2.9-1,3.8s-1.7,1.3-3,1.3c-1.3,0-2.3-0.4-3-1.3s-1.1-2.1-1.1-3.7v-2.2
			c0-1.7,0.3-3,1-3.8c0.7-0.9,1.7-1.3,3-1.3c1.3,0,2.3,0.4,3,1.3c0.7,0.9,1.1,2.1,1.1,3.7V528.7z M-818.7,526.3c0-1-0.1-1.7-0.4-2.2
			s-0.7-0.7-1.3-0.7c-0.6,0-1,0.2-1.2,0.7c-0.3,0.4-0.4,1.1-0.4,2v2.9c0,1,0.1,1.7,0.4,2.2c0.3,0.5,0.7,0.7,1.3,0.7
			c0.6,0,1-0.2,1.3-0.7c0.3-0.5,0.4-1.2,0.4-2.1V526.3z"/>
	</g>
	<g>
		<path fill="#FFFFFF" d="M-871.2,561.7h-2.4v-9.3l-2.9,0.9v-1.9l5-1.8h0.3V561.7z"/>
		<path fill="#FFFFFF" d="M-855.7,556.7c0,1.7-0.3,2.9-1,3.8s-1.7,1.3-3,1.3c-1.3,0-2.3-0.4-3-1.3s-1.1-2.1-1.1-3.7v-2.2
			c0-1.7,0.3-3,1-3.8c0.7-0.9,1.7-1.3,3-1.3c1.3,0,2.3,0.4,3,1.3c0.7,0.9,1.1,2.1,1.1,3.7V556.7z M-858.1,554.3c0-1-0.1-1.7-0.4-2.2
			s-0.7-0.7-1.3-0.7c-0.6,0-1,0.2-1.2,0.7c-0.3,0.4-0.4,1.1-0.4,2v2.9c0,1,0.1,1.7,0.4,2.2c0.3,0.5,0.7,0.7,1.3,0.7
			c0.6,0,1-0.2,1.3-0.7c0.3-0.5,0.4-1.2,0.4-2.1V554.3z"/>
		<path fill="#FFFFFF" d="M-844.9,561.7h-2.4v-9.3l-2.9,0.9v-1.9l5-1.8h0.3V561.7z"/>
		<path fill="#FFFFFF" d="M-831.7,561.7h-2.4v-9.3l-2.9,0.9v-1.9l5-1.8h0.3V561.7z"/>
		<path fill="#FFFFFF" d="M-818.6,561.7h-2.4v-9.3l-2.9,0.9v-1.9l5-1.8h0.3V561.7z"/>
	</g>
</g>
</svg>
