<?xml version="1.0" encoding="UTF-8" standalone="no"?>
<svg width="112px" height="95px" viewBox="0 0 112 95" version="1.1" xmlns="http://www.w3.org/2000/svg" xmlns:xlink="http://www.w3.org/1999/xlink" xmlns:sketch="http://www.bohemiancoding.com/sketch/ns">
    <!-- Generator: sketchtool 3.4.4 (395) - http://www.bohemiancoding.com/sketch -->
    <title>Fill 4 + Fill 5</title>
    <desc>Created with sketchtool.</desc>
    <defs>
        <path id="path-1" d="M0,0.404911765 L47.32,0.404911765 L47.32,39 L0,39 L0,0.404911765 Z"></path>
    </defs>
    <g id="Phase-0" stroke="none" stroke-width="1" fill="none" fill-rule="evenodd" sketch:type="MSPage">
        <g id="Static/Rules" sketch:type="MSArtboardGroup" transform="translate(-909.000000, -268.000000)">
            <g id="Icons" sketch:type="MSLayerGroup" transform="translate(264.000000, 269.000000)">
                <g id="Fill-4-+-Fill-5" transform="translate(646.000000, 0.000000)">
                    <path d="M28.1598947,93 L0.942,46.5 L28.1598947,0 L82.5931917,0 L109.80984,46.5 L82.5931917,93 L28.1598947,93" id="Fill-4" stroke="#9D1BB2" stroke-width="2" sketch:type="MSShapeGroup"></path>
                    <g id="Page-1" transform="translate(32.000000, 30.000000)">
                        <mask id="mask-2" sketch:name="Clip 2" fill="white">
                            <use xlink:href="#path-1"></use>
                        </mask>
                        <g id="Clip-2"></g>
                        <g id="ic_share_black_24px" mask="url(#mask-2)">
                            <g transform="translate(24.000000, -12.000000)" id="Group">
                                <g></g>
                            </g>
                        </g>
                    </g>
                    <g id="Page-1" transform="translate(29.000000, 19.000000)" fill="#FFFFFF" sketch:type="MSShapeGroup">
                        <path d="M26.7975659,0.929853659 L19.6445415,8.08287805 L20.9062976,9.342 L25.9032732,4.3542439 L25.9032732,15.2345854 L27.6931756,15.2345854 L27.6931756,4.3542439 L32.6901512,9.35253659 L33.9505902,8.08287805 L26.7975659,0.929853659 Z" id="Fill-1"></path>
                        <path d="M0,19.9087463 L3.63512195,29.3482098 L5.29990244,28.7081122 L2.76717073,22.116161 L12.7123902,26.5283561 L13.4367805,24.8951854 L3.49156098,20.4816732 L10.0887805,17.941039 L9.43946341,16.2736244 L0,19.9087463 Z" id="Fill-2"></path>
                        <path d="M10.9693756,49.3757561 L9.79849756,42.4044878 L8.03625366,42.7074146 L9.71025366,52.6829268 L19.6870829,51.0062927 L19.3920585,49.2493171 L12.4260585,50.4136098 L18.7387902,41.5497073 L17.2821073,40.5131707 L10.9693756,49.3757561 Z" id="Fill-3"></path>
                        <path d="M43.2634829,17.941039 L49.8593854,20.4816732 L39.9141659,24.8951854 L40.6385561,26.5283561 L50.5837756,22.116161 L48.052361,28.7081122 L49.7158244,29.3482098 L53.3509463,19.9113805 L53.3509463,19.9087463 L43.9114829,16.2736244 L43.2634829,17.941039 Z" id="Fill-4"></path>
                        <path d="M34.6126829,41.5499707 L40.9254146,50.4125561 L33.9607317,49.2495805 L33.6657073,51.0065561 L43.6399024,52.6831902 L45.3165366,42.706361 L43.5529756,42.4047512 L42.3820976,49.3760195 L36.0693659,40.5134341 L34.6126829,41.5499707 Z" id="Fill-5"></path>
                        <path d="M33.8327122,29.4572634 C33.8327122,33.4414098 30.6032488,36.6708732 26.6191024,36.6708732 C22.6349561,36.6708732 19.4054927,33.4414098 19.4054927,29.4572634 C19.4054927,25.4731171 22.6349561,22.2436537 26.6191024,22.2436537 C30.6032488,22.2436537 33.8327122,25.4731171 33.8327122,29.4572634" id="Fill-6"></path>
                    </g>
                </g>
            </g>
        </g>
    </g>
</svg>